<?xml version="1.0" encoding="iso-8859-1"?>
<!-- Uploaded to: SVG Repo, www.svgrepo.com, Generator: SVG Repo Mixer Tools -->
<svg fill="#946BDE" version="1.1" id="Layer_1" xmlns="http://www.w3.org/2000/svg" xmlns:xlink="http://www.w3.org/1999/xlink" 
	 viewBox="0 0 512 512" xml:space="preserve">
<g>
	<g>
		<path d="M500.983,181.442l-2.263-7.493l-7.567,2.007c-4.781,1.269-9.426,1.885-14.198,1.885
			c-31.193,0-56.572-25.377-56.572-56.572c0-2.376,0.187-4.789,0.554-7.176l0.862-5.601l-4.967-2.727
			c-6.478-3.558-12.204-8.5-17.017-14.688l-6.405-8.235l-6.389,8.248c-10.871,14.034-27.199,22.083-44.795,22.083
			c-31.193,0-56.573-25.378-56.573-56.573c0-14.778,5.77-28.849,16.247-39.624L312.81,5.758l-15.458-2.427
			C283.276,1.121,269.363,0,256.001,0c-141.159,0-256,114.841-256,256s114.841,256,256,256s256-114.841,255.998-256.002
			C511.999,230.737,508.293,205.654,500.983,181.442z M256.001,495.805C123.773,495.805,16.197,388.229,16.197,256
			S123.773,16.195,256.001,16.195c8.105,0,16.439,0.442,24.903,1.319c-7.449,11.641-11.444,25.112-11.444,39.086
			c0,40.125,32.643,72.768,72.768,72.768c19.409,0,37.606-7.596,51.201-21.117c3.369,3.346,7.008,6.309,10.898,8.871
			c-0.092,1.386-0.138,2.772-0.138,4.148c0,40.124,32.644,72.767,72.767,72.767c3.559,0,7.056-0.262,10.554-0.795
			c5.506,20.474,8.294,41.549,8.294,62.756C495.806,388.228,388.229,495.805,256.001,495.805z"/>
	</g>
</g>
<g>
	<g>
		<path d="M175.163,113.174c-25.266,0-45.821,20.555-45.821,45.821s20.555,45.821,45.821,45.821
			c25.267,0,45.821-20.555,45.821-45.821S200.429,113.174,175.163,113.174z M175.163,188.619c-16.335,0-29.626-13.291-29.626-29.626
			s13.29-29.626,29.626-29.626c16.336,0,29.626,13.291,29.626,29.626S191.498,188.619,175.163,188.619z"/>
	</g>
</g>
<g>
	<g>
		<path d="M115.883,210.178c-19.322,0-35.044,15.721-35.044,35.044c0,19.322,15.721,35.044,35.044,35.044
			c19.323,0,35.044-15.721,35.044-35.044C150.926,225.899,135.205,210.178,115.883,210.178z M115.883,264.07
			c-10.393,0-18.848-8.455-18.848-18.848c0-10.393,8.455-18.848,18.848-18.848c10.393,0,18.848,8.455,18.848,18.848
			C134.731,255.615,126.276,264.07,115.883,264.07z"/>
	</g>
</g>
<g>
	<g>
		<path d="M385.341,296.404c-19.322,0-35.044,15.721-35.044,35.044s15.721,35.044,35.044,35.044
			c19.323,0,35.044-15.721,35.044-35.044S404.663,296.404,385.341,296.404z M385.341,350.296c-10.393,0-18.848-8.455-18.848-18.848
			c0-10.393,8.455-18.848,18.848-18.848s18.848,8.455,18.848,18.848C404.189,341.841,395.734,350.296,385.341,350.296z"/>
	</g>
</g>
<g>
	<g>
		<path d="M309.894,361.075c-19.322,0-35.044,15.721-35.044,35.044c0,19.322,15.721,35.044,35.044,35.044
			s35.044-15.721,35.044-35.044C344.938,376.796,329.216,361.075,309.894,361.075z M309.894,414.967
			c-10.393,0-18.848-8.455-18.848-18.848c0-10.393,8.455-18.848,18.848-18.848c10.393,0,18.848,8.455,18.848,18.848
			C328.742,406.512,320.287,414.967,309.894,414.967z"/>
	</g>
</g>
<g>
	<g>
		<path d="M288.337,264.07c-19.322,0-35.044,15.721-35.044,35.044c0,19.322,15.721,35.044,35.044,35.044
			c19.322,0,35.044-15.721,35.044-35.044C323.381,279.791,307.659,264.07,288.337,264.07z M288.337,317.962
			c-10.393,0-18.848-8.455-18.848-18.848c0-10.393,8.455-18.848,18.848-18.848c10.393,0,18.848,8.455,18.848,18.848
			C307.185,309.506,298.73,317.962,288.337,317.962z"/>
	</g>
</g>
<g>
	<g>
		<rect x="304.507" y="177.847" width="21.557" height="16.195"/>
	</g>
</g>
<g>
	<g>
		<rect x="336.844" y="210.173" width="21.556" height="16.195"/>
	</g>
</g>
<g>
	<g>
		<rect x="347.62" y="167.061" width="21.557" height="16.195"/>
	</g>
</g>
<g>
	<g>
		<rect x="99.711" y="371.858" width="21.557" height="16.195"/>
	</g>
</g>
<g>
	<g>
		<rect x="121.272" y="339.521" width="21.557" height="16.195"/>
	</g>
</g>
<g>
	<g>
		<rect x="142.823" y="371.858" width="21.557" height="16.195"/>
	</g>
</g>
</svg>