<svg width="900" height="600" viewBox="0 0 900 600" fill="none" xmlns="http://www.w3.org/2000/svg"><path fill="transparent" d="M0 0h900v600H0z"/><path d="M412.018 447.258h88.88c74.066 0 103.693-29.627 103.693-103.694v-88.88c0-74.066-29.627-103.693-103.693-103.693h-88.88c-74.067 0-103.694 29.627-103.694 103.693v88.88c0 74.067 29.627 103.694 103.694 103.694z" fill="#946BDE"/><path d="M472.88 331.967c0 14.506-6.295 27.644-16.422 36.676-8.759 7.937-20.254 12.59-32.845 12.59-27.233 0-49.265-22.033-49.265-49.266 0-22.717 15.464-41.876 36.265-47.487 5.611 14.233 17.79 25.318 32.844 29.423 4.105 1.095 8.485 1.779 13.001 1.779s8.895-.547 13.001-1.779c2.189 5.474 3.421 11.632 3.421 18.064z" stroke="#fff" stroke-width="16.054" stroke-linecap="round" stroke-linejoin="round"/><path d="M505.722 266.28c0 6.432-1.232 12.59-3.421 18.201-5.611 14.233-17.79 25.317-32.844 29.423-4.105 1.095-8.485 1.779-13.001 1.779s-8.895-.547-13.001-1.779c-15.053-4.106-27.232-15.054-32.843-29.423a50.041 50.041 0 0 1-3.422-18.201c0-27.233 22.033-49.266 49.266-49.266 27.233 0 49.266 22.033 49.266 49.266z" stroke="#fff" stroke-width="16.054" stroke-linecap="round" stroke-linejoin="round"/><path d="M538.568 331.967c0 27.233-22.033 49.266-49.266 49.266-12.59 0-24.086-4.79-32.844-12.59 10.126-8.895 16.422-22.033 16.422-36.676 0-6.432-1.232-12.59-3.422-18.201 15.054-4.106 27.233-15.054 32.844-29.423 20.801 5.748 36.266 24.907 36.266 47.624z" stroke="#fff" stroke-width="16.054" stroke-linecap="round" stroke-linejoin="round"/><rect x="225.393" y="67.752" width="463.509" height="463.509" rx="231.755" stroke="#E1E4E5" stroke-width="11.747" stroke-linecap="round" stroke-linejoin="bevel" stroke-dasharray="11.32 28.31"/><ellipse cx="221.721" cy="299.507" rx="34.082" ry="33.557" fill="#fff" stroke="#E1E4E5" stroke-width="11.747"/><ellipse cx="457.146" cy="64.082" rx="34.082" ry="33.557" transform="rotate(90 457.146 64.082)" fill="#fff" stroke="#E1E4E5" stroke-width="11.747"/><ellipse cx="692.572" cy="299.507" rx="34.082" ry="33.557" fill="#fff" stroke="#E1E4E5" stroke-width="11.747"/><ellipse cx="457.146" cy="534.932" rx="34.082" ry="33.557" transform="rotate(90 457.146 534.932)" fill="#fff" stroke="#E1E4E5" stroke-width="11.747"/><path d="M185.263 430.552c13.392 8.027 32.606.607 32.606.607s-2.512-20.431-15.913-28.448c-13.392-8.027-32.598-.616-32.598-.616s2.513 20.43 15.905 28.457z" fill="url(#a)"/><circle cx="238.141" cy="496.946" r="17.674" transform="rotate(180 238.141 496.946)" fill="#946BDE"/><circle cx="285.476" cy="105.267" r="7.568" transform="rotate(180 285.476 105.267)" fill="#946BDE"/><circle cx="514.853" cy="127.634" r="8.206" transform="rotate(180 514.853 127.634)" fill="#946BDE"/><circle r="7.732" transform="matrix(-1 0 0 1 680.548 439.821)" fill="#946BDE"/><circle r="9.942" transform="matrix(-1 0 0 1 594.544 538.449)" fill="#E1E4E5"/><circle r="10.221" transform="matrix(-1 0 0 1 318.9 537.702)" fill="#E1E4E5"/><circle r="5.379" transform="matrix(-1 0 0 1 684.35 510.295)" fill="#E1E4E5"/><circle r="12.151" transform="matrix(-1 0 0 1 700.353 181.651)" fill="#E1E4E5"/><circle r="10.911" transform="scale(1 -1) rotate(-75 -35.61 -227.988)" fill="#E1E4E5"/><circle r="9.638" transform="matrix(-1 0 0 1 397.864 127.399)" fill="#E1E4E5"/><ellipse rx="11.166" ry="8.933" transform="matrix(-1 0 0 1 727.063 385.631)" fill="#E1E4E5"/><circle r="9.894" transform="scale(1 -1) rotate(-75 246.434 -436.108)" fill="#E1E4E5"/><path d="M282.617 202.324h.159c.942 13.345 10.867 13.551 10.867 13.551s-10.945.213-10.945 15.634c0-15.421-10.944-15.634-10.944-15.634s9.921-.206 10.863-13.551z" fill="#E1E4E5"/><defs><linearGradient id="a" x1="237.088" y1="456.389" x2="129.328" y2="356.266" gradientUnits="userSpaceOnUse"><stop stop-color="#fff"/><stop offset="1" stop-color="#EEE"/></linearGradient></defs></svg>