<svg width="900" height="600" viewBox="0 0 900 600" fill="none" xmlns="http://www.w3.org/2000/svg"><path fill="transparent" d="M0 0h900v600H0z"/><path d="M368.469 349.071c10.358 38.187 108.902 90.237 189.974 32.137 37.706-27.024 26.943-47.644 49.423-86.933 13.4-23.417 36.502-45.41 35.895-72.813-.518-23.655-12.181-45.411-28.547-56.661-36.809-25.301-96.232-31.321-129.674 38.751-33.441 70.072-143.774 47.03-117.071 145.519z" fill="url(#a)"/><path d="M504.004 187.556c-43.938 26.218-89.582 54.544-134.863 58.526-46.712 4.118-48.112-11.621-41.895-32.95 6.218-21.329 38.765-64.074 102.118-68.79 63.37-4.719 115.756 18.674 74.64 43.214z" fill="url(#b)"/><path d="m450.84 140.076-13.225 23.076-.315.549c-1.592 2.821-.83 6.372 1.771 8.263l17.962 13.07c.3.216.569.451.819.701 1.695 1.784 2.266 4.436 1.276 6.735-5.652 13.64-8.54 28.232-8.462 42.987a7.05 7.05 0 0 1-.253 1.765c-.616 2.123-2.356 3.829-4.554 4.395l-17.995 4.454c-2.365.605-4.142 2.527-4.654 4.808-.134.698-.194 1.458-.093 2.225l3.674 26.909c.443 3.304 3.394 5.765 6.762 5.58l24.63-1.258a6.256 6.256 0 0 1 5.842 3.317c1.695 3.074 3.491 6.079 5.479 9.03a110.01 110.01 0 0 0 12.349 15.221l.02.026c1.871 1.927 2.364 4.75 1.236 7.178l-10.551 22.711-.518 1.147c-1.381 2.904-.282 6.454 2.554 8.071l23.57 13.543c2.882 1.628 6.549.868 8.497-1.818l14.551-19.982c1.615-2.226 4.473-3.168 7.052-2.325 10.975 3.387 22.42 5.092 33.917 4.974a6.354 6.354 0 0 1 6.181 4.832l5.337 21.314a6.473 6.473 0 0 0 7.179 4.845l27.028-3.671c3.194-.443 5.512-3.261 5.34-6.446l-1.442-28.952c-.135-2.455 1.153-4.766 3.299-5.977a107.884 107.884 0 0 0 7.808-4.809 112.538 112.538 0 0 0 13.433-10.606c1.86-1.744 4.581-2.214 6.885-1.107l27.287 12.708a6.366 6.366 0 0 0 8.193-2.597l13.59-23.667c1.422-2.51.948-5.69-1.067-7.669-.209-.199-.438-.423-.704-.588l-22.165-16.154c-2.067-1.492-3.068-4.043-2.499-6.519.043-.216.087-.438.17-.648.214-.637.423-1.234.578-1.907a110.583 110.583 0 0 0 4.633-23.209c.193-2.637 2.126-4.849 4.737-5.471l22.515-5.642c3.194-.786 5.272-3.893 4.819-7.158l-.807-5.984-2.872-20.879c-.428-3.279-3.32-5.657-6.636-5.513l-24.262 1.238c-2.591.154-4.95-1.372-5.983-3.753a112.07 112.07 0 0 0-9.988-18.254 110.112 110.112 0 0 0-9.61-12.28l2.221-4.762 9.07-19.551c1.148-2.409.595-5.262-1.257-7.048a5.506 5.506 0 0 0-1.308-.978l-23.718-13.671c-2.822-1.592-6.378-.79-8.29 1.79l-9.919 13.673c-1.676 2.306-4.781 3.219-7.427 2.159a111.44 111.44 0 0 0-34.275-7.809c-2.779-.175-5.082-2.078-5.684-4.71l-6.732-26.943a6.123 6.123 0 0 0-6.754-4.557l-27.316 3.753c-3.24.439-5.583 3.27-5.391 6.481l1.508 30.122c.154 2.591-1.312 4.985-3.684 6.089-5.062 2.349-9.988 5.174-14.795 8.413a111.842 111.842 0 0 0-7.464 5.488 6.396 6.396 0 0 1-6.625.818l-26.165-12.169a6.431 6.431 0 0 0-8.313 2.583zm57.368 122.284c-10.148-19.417-9.259-39.935-.681-54.747 30.154-51.873 103.188-38.33 113.251 19.971 2.389 14.956-1.243 30.889-13.535 45.381-28.741 33.524-79.61 26.495-99.035-10.605zm-218.451-58.923-17.211 8.029-.41.191c-2.089.992-3.106 3.378-2.366 5.551l5.108 15.018c.086.249.147.496.189.745.256 1.739-.502 3.522-2.026 4.456a79.065 79.065 0 0 0-22.621 21.609 5.075 5.075 0 0 1-.874.926 4.592 4.592 0 0 1-4.466.692l-12.335-4.803a4.6 4.6 0 0 0-4.694.892 4.99 4.99 0 0 0-.97 1.26l-8.924 17.217c-1.102 2.11-.391 4.761 1.651 6.038l14.893 9.398a4.468 4.468 0 0 1 2.045 4.339 84.764 84.764 0 0 0-.517 7.525 78.674 78.674 0 0 0 .946 13.964l.001.023a4.562 4.562 0 0 1-2.231 4.698l-15.501 8.915-.774.456c-2.001 1.127-2.819 3.651-1.829 5.761l8.186 17.601c1.012 2.135 3.464 3.2 5.706 2.434l16.713-5.677c1.859-.635 3.914-.009 5.072 1.544 5.013 6.491 10.991 12.195 17.75 16.855a4.538 4.538 0 0 1 1.62 5.363l-5.653 14.635a4.624 4.624 0 0 0 2.197 5.782l17.285 8.975c2.047 1.055 4.559.364 5.769-1.565l11.068-17.491a4.617 4.617 0 0 1 4.384-2.132c2.154.227 4.334.362 6.536.405a80.244 80.244 0 0 0 12.203-.665c1.803-.252 3.585.593 4.474 2.186l10.698 18.642a4.546 4.546 0 0 0 5.851 1.855l17.667-8.222a4.57 4.57 0 0 0 2.532-4.916c-.04-.202-.082-.427-.169-.633l-6.292-18.546c-.592-1.721-.127-3.622 1.224-4.833.114-.108.23-.219.365-.308.387-.284.755-.546 1.122-.875A78.936 78.936 0 0 0 375.4 355.11c1.198-1.459 3.236-1.955 5.016-1.244l15.461 5.969c2.188.855 4.679-.104 5.758-2.195l1.991-3.825 6.912-13.368c1.099-2.09.39-4.667-1.605-5.947l-14.67-9.258c-1.576-.976-2.325-2.837-1.948-4.651a80.017 80.017 0 0 0 1.679-14.763 78.577 78.577 0 0 0-.558-11.121l3.256-1.866 13.336-7.68a4.39 4.39 0 0 0 2.165-4.63 3.863 3.863 0 0 0-.361-1.109l-8.219-17.736c-.992-2.09-3.397-3.085-5.575-2.365l-11.413 3.9c-1.928.656-4.115-.088-5.223-1.795a79.555 79.555 0 0 0-16.793-18.658c-1.55-1.245-2.111-3.303-1.38-5.087l7.154-18.494a4.372 4.372 0 0 0-2.067-5.438l-17.487-9.047c-2.072-1.077-4.604-.388-5.813 1.565l-11.511 18.201c-.975 1.576-2.816 2.37-4.654 2.038-3.921-.711-7.959-1.089-12.096-1.175a80.262 80.262 0 0 0-6.614.132 4.567 4.567 0 0 1-4.204-2.247l-10.265-17.866a4.594 4.594 0 0 0-5.915-1.913zm-16.82 94.972c2.065-15.508 11.024-27.117 22.124-32.234 38.938-17.872 75.994 20.076 57.884 58.243-4.758 9.712-13.432 17.518-26.568 20.919-30.565 7.744-57.363-17.284-53.44-46.928zm135.324 77.441-9.31 9.337-.221.222a3.147 3.147 0 0 0-.22 4.184l6.909 8.575c.116.141.214.289.302.44.581 1.073.512 2.416-.259 3.389a54.864 54.864 0 0 0-9.601 19.481 3.474 3.474 0 0 1-.349.812 3.188 3.188 0 0 1-2.747 1.516l-9.188-.192a3.193 3.193 0 0 0-2.848 1.7 3.425 3.425 0 0 0-.332 1.053l-1.716 13.353a3.213 3.213 0 0 0 2.515 3.544l11.951 2.578a3.101 3.101 0 0 1 2.368 2.342c.414 1.69.886 3.36 1.456 5.03a54.638 54.638 0 0 0 3.945 8.879l.006.015a3.167 3.167 0 0 1-.335 3.595l-7.983 9.507-.396.482a3.097 3.097 0 0 0 .18 4.193l9.533 9.525c1.168 1.151 3.022 1.261 4.301.227l9.544-7.684a3.131 3.131 0 0 1 3.676-.202 55.129 55.129 0 0 0 15.59 6.76 3.15 3.15 0 0 1 2.335 3.111l-.198 10.89a3.209 3.209 0 0 0 2.81 3.246l13.41 1.733a3.07 3.07 0 0 0 3.388-2.396l3.049-14.042a3.204 3.204 0 0 1 2.35-2.435 53.427 53.427 0 0 0 4.358-1.294 55.759 55.759 0 0 0 7.799-3.341c1.115-.595 2.478-.468 3.438.359l11.419 9.606a3.155 3.155 0 0 0 4.256-.185l9.561-9.572a3.172 3.172 0 0 0 .479-3.809c-.074-.122-.155-.259-.261-.372l-8.522-10.594c-.797-.98-.947-2.331-.354-3.442.048-.098.098-.199.165-.289.184-.277.362-.536.523-.838a54.84 54.84 0 0 0 5.214-10.509c.433-1.237 1.644-2.047 2.974-2.007l11.504.207c1.63.036 3.026-1.182 3.231-2.804l.386-2.968 1.322-10.363c.218-1.625-.859-3.137-2.464-3.496l-11.772-2.541c-1.26-.26-2.192-1.295-2.379-2.568a55.567 55.567 0 0 0-2.423-10.026 54.666 54.666 0 0 0-3.014-7.119l1.678-1.992 6.865-8.186a3.05 3.05 0 0 0 .309-3.536c-.13-.236-.3-.443-.5-.637l-9.586-9.605c-1.145-1.127-2.951-1.202-4.199-.214l-6.513 5.263c-1.1.887-2.704.923-3.833.074a55.26 55.26 0 0 0-15.396-8.163c-1.307-.443-2.164-1.651-2.113-2.988l.258-13.764a3.036 3.036 0 0 0-2.644-3.054l-13.559-1.731c-1.607-.208-3.094.844-3.417 2.406l-3.168 14.611c-.26 1.26-1.271 2.217-2.549 2.438-2.726.471-5.449 1.187-8.167 2.117a55.49 55.49 0 0 0-4.281 1.662 3.173 3.173 0 0 1-3.277-.463l-10.951-9.204a3.189 3.189 0 0 0-4.312.163zm11.666 65.935c-2.35-10.604.726-20.309 6.743-26.291 21.131-20.933 54.337-5.02 51.624 24.182-.787 7.467-4.583 14.624-12.338 19.972-18.084 12.334-41.523 2.401-46.029-17.863z" fill="#946BDE"/><path d="m623.852 391.922.266 13.67.008.325a3.256 3.256 0 0 0 2.965 3.171l11.378 1.005c.189.017.37.047.545.094 1.218.338 2.173 1.354 2.342 2.631A56.843 56.843 0 0 0 648.988 434c.16.271.276.557.355.845a3.317 3.317 0 0 1-.847 3.144l-6.759 6.727a3.315 3.315 0 0 0-.783 3.352c.124.345.3.694.548 1.007l8.736 10.885a3.33 3.33 0 0 0 4.457.67l10.533-7.074a3.22 3.22 0 0 1 3.453-.086 56.771 56.771 0 0 0 14.273 5.966l.014.007a3.278 3.278 0 0 1 2.443 2.837l1.354 12.796.076.643c.157 1.646 1.582 2.917 3.261 2.88l13.983-.282c1.701-.047 3.116-1.351 3.269-3.049l1.137-12.657a3.248 3.248 0 0 1 2.497-2.89 57.254 57.254 0 0 0 16.277-6.788 3.267 3.267 0 0 1 4.004.494l7.983 7.98a3.33 3.33 0 0 0 4.448.236l10.952-8.772a3.184 3.184 0 0 0 .651-4.254l-8.289-12.375a3.334 3.334 0 0 1-.127-3.509 57.955 57.955 0 0 0 5.295-12.413c.358-1.263 1.437-2.189 2.744-2.311l15.396-1.624a3.28 3.28 0 0 0 2.928-3.315l-.261-14.024a3.285 3.285 0 0 0-2.5-3.097c-.146-.033-.306-.071-.465-.075l-14.05-1.25c-1.306-.11-2.422-.971-2.824-2.212-.039-.108-.078-.214-.095-.33-.074-.339-.14-.656-.25-.993a56.809 56.809 0 0 0-4.091-11.451c-.611-1.215-.345-2.699.643-3.667l8.44-8.444c1.199-1.191 1.295-3.113.232-4.431l-1.939-2.425-6.788-8.439c-1.056-1.333-2.961-1.614-4.385-.672l-10.376 6.969c-1.104.753-2.546.706-3.631-.07a57.513 57.513 0 0 0-16.715-8.267l-.279-2.686-1.169-11.017a3.163 3.163 0 0 0-2.419-2.774 2.896 2.896 0 0 0-.836-.086l-14.076.256c-1.665.044-3.023 1.341-3.184 2.981l-.761 8.651c-.13 1.458-1.257 2.684-2.707 2.919a57.366 57.366 0 0 0-17.184 5.631c-1.273.657-2.793.43-3.753-.571l-10.092-10.09a3.152 3.152 0 0 0-4.186-.22l-11.058 8.885c-1.313 1.048-1.598 2.918-.664 4.283l8.628 12.872c.752 1.103.739 2.543-.015 3.657-1.612 2.376-3.039 4.925-4.302 7.625a57.272 57.272 0 0 0-1.842 4.394 3.295 3.295 0 0 1-2.706 2.115l-14.759 1.562a3.322 3.322 0 0 0-2.979 3.343zm57.637 38.697c-3.225-1.969-6.248-4.595-8.957-7.933-.584-.701-1.149-1.554-1.701-2.475-2.328-3.999-4.056-9.505-4.116-13.536-.412-30.837 35.385-44.202 55.235-21.177.321.382.643.764.958 1.162 2.957 3.685 5.447 10.619 5.561 15.336a38.203 38.203 0 0 1-.49 7.08c-3.814 22.379-28.113 32.748-46.49 21.543z" fill="url(#c)"/><path d="m124.875 402.558-.628 12.001-.013.285a2.878 2.878 0 0 0 2.391 2.981l9.878 1.649c.164.028.321.067.471.12 1.043.378 1.813 1.333 1.88 2.464a50.333 50.333 0 0 0 5.337 19.084c.123.248.206.507.257.765a2.912 2.912 0 0 1-.937 2.699l-6.33 5.44a2.913 2.913 0 0 0-.895 2.886c.088.31.219.628.416.919l6.948 10.132a2.92 2.92 0 0 0 3.853.889l9.648-5.49a2.813 2.813 0 0 1 3.023.158 49.989 49.989 0 0 0 12.095 6.194l.012.007a2.9 2.9 0 0 1 1.956 2.652l.379 11.308.025.569a2.832 2.832 0 0 0 2.669 2.745l12.235.697a2.933 2.933 0 0 0 3.048-2.452l1.79-11.018a2.832 2.832 0 0 1 2.363-2.365 49.78 49.78 0 0 0 14.649-4.851c1.176-.59 2.6-.31 3.468.704l6.473 7.534a2.913 2.913 0 0 0 3.871.507l10.122-6.949a2.798 2.798 0 0 0 .836-3.685l-6.464-11.408a2.935 2.935 0 0 1 .11-3.084 50.624 50.624 0 0 0 5.407-10.525 2.76 2.76 0 0 1 2.542-1.84l13.555-.384a2.858 2.858 0 0 0 2.767-2.707l.654-12.312a2.904 2.904 0 0 0-1.989-2.883c-.126-.039-.263-.084-.402-.097l-12.197-2.046a2.854 2.854 0 0 1-2.329-2.129c-.027-.098-.055-.193-.062-.296-.044-.302-.081-.585-.156-.887a50.245 50.245 0 0 0-2.855-10.315c-.458-1.106-.132-2.389.793-3.171l7.906-6.831c1.122-.964 1.327-2.642.48-3.87l-1.541-2.256-5.4-7.857a2.874 2.874 0 0 0-3.79-.884l-9.504 5.408c-1.012.586-2.269.446-3.168-.307a50.787 50.787 0 0 0-7.726-5.356 49.84 49.84 0 0 0-6.359-3.02l-.075-2.374-.328-9.736a2.798 2.798 0 0 0-1.94-2.595 2.555 2.555 0 0 0-.724-.132l-12.316-.726c-1.457-.074-2.725.971-2.969 2.398l-1.209 7.531c-.206 1.271-1.267 2.269-2.549 2.376a49.93 49.93 0 0 0-15.369 3.777c-1.153.489-2.467.187-3.243-.755l-8.183-9.526a2.759 2.759 0 0 0-3.644-.476l-10.221 7.042a2.797 2.797 0 0 0-.849 3.709l6.728 11.867a2.854 2.854 0 0 1-.242 3.205 48.273 48.273 0 0 0-4.239 6.393 50.073 50.073 0 0 0-1.885 3.727 2.868 2.868 0 0 1-2.498 1.671l-12.994.372a2.897 2.897 0 0 0-2.813 2.73zm47.926 37.816c-2.693-1.945-5.17-4.451-7.327-7.56-.466-.654-.906-1.439-1.33-2.284-1.783-3.663-2.946-8.606-2.746-12.144 1.58-27.06 33.699-36.358 49.595-14.833.256.357.514.714.764 1.084 2.351 3.43 4.091 9.676 3.894 13.819a33.586 33.586 0 0 1-.874 6.173c-4.739 19.36-26.623 26.809-41.976 15.745z" fill="url(#d)"/><ellipse cx="173.553" cy="291.516" rx="8.985" ry="8.423" transform="rotate(-180 173.553 291.516)" fill="#E1E4E5"/><ellipse cx="744.652" cy="270.739" rx="8.423" ry="8.985" transform="rotate(-180 744.652 270.739)" fill="#E1E4E5"/><circle cx="317.31" cy="423.481" r="8.985" transform="rotate(-180 317.31 423.481)" fill="#E1E4E5"/><circle r="13.428" transform="scale(-1 1) rotate(30 -479.257 -656.284)" fill="#E1E4E5"/><ellipse cx="568.325" cy="414.497" rx="11.793" ry="11.231" fill="#946BDE"/><defs><linearGradient id="a" x1="530.42" y1="544.976" x2="463.12" y2="-119.313" gradientUnits="userSpaceOnUse"><stop stop-color="#fff"/><stop offset="1" stop-color="#EEE"/></linearGradient><linearGradient id="b" x1="528.309" y1="49.046" x2="258.003" y2="423.561" gradientUnits="userSpaceOnUse"><stop stop-color="#fff"/><stop offset="1" stop-color="#EEE"/></linearGradient><linearGradient id="c" x1="613.352" y1="270.393" x2="821.728" y2="602.832" gradientUnits="userSpaceOnUse"><stop stop-color="#fff"/><stop offset="1" stop-color="#EEE"/></linearGradient><linearGradient id="d" x1="123.344" y1="295.315" x2="284.551" y2="600.786" gradientUnits="userSpaceOnUse"><stop stop-color="#fff"/><stop offset="1" stop-color="#EEE"/></linearGradient></defs></svg>