<svg fill="none" xmlns="http://www.w3.org/2000/svg" viewBox="0 0 900 600"><path fill="transparent" d="M0 0h900v600H0z"/><circle cx="630.601" cy="470.427" r="17.613" transform="rotate(180 630.601 470.427)" fill="#946BDE"/><circle cx="653.565" cy="124.969" r="13.62" transform="rotate(180 653.565 124.969)" fill="#946BDE"/><circle cx="350.48" cy="303.205" r="14.499" transform="rotate(180 350.48 303.205)" fill="#946BDE"/><circle r="16.512" transform="matrix(-1 0 0 1 181.512 356.457)" fill="#946BDE"/><circle r="9.907" transform="scale(1 -1) rotate(60 707.276 378.261)" fill="#E1E4E5"/><circle r="10.891" transform="scale(1 -1) rotate(60 642.358 70.047)" fill="#E1E4E5"/><circle r="12.109" transform="matrix(-1 0 0 1 718.646 224.719)" fill="#E1E4E5"/><circle r="10.873" transform="scale(1 -1) rotate(-75 27.593 -544.25)" fill="#E1E4E5"/><circle r="14.465" transform="matrix(-1 0 0 1 207.208 141.35)" fill="#E1E4E5"/><ellipse rx="11.127" ry="8.902" transform="scale(1 -1) rotate(60 719.699 214.462)" fill="#E1E4E5"/><path d="M192.471 236.744h.158c.939 13.299 10.829 13.504 10.829 13.504s-10.906.213-10.906 15.58c0-15.367-10.906-15.58-10.906-15.58s9.886-.205 10.825-13.504zm51.723 205.292h.152c.901 13.259 10.397 13.464 10.397 13.464s-10.471.212-10.471 15.533c0-15.321-10.471-15.533-10.471-15.533s9.492-.205 10.393-13.464zm479.384-142.04h.152c.901 13.26 10.397 13.464 10.397 13.464s-10.471.212-10.471 15.534c0-15.322-10.471-15.534-10.471-15.534s9.492-.204 10.393-13.464z" fill="#E1E4E5"/><path fill-rule="evenodd" clip-rule="evenodd" d="M257.906 199.661c-11.468 29.468-16.555 62.162-13.578 96.397a205.331 205.331 0 0 0 6.273 35.529l36.842-10.557a23.643 23.643 0 0 1 23.475 6.26l59.42 61.212a20.178 20.178 0 0 0 15.645 6.09l22.611-1.308c14.718-.852 26.616 11.827 24.833 26.461l-8.193 67.229c3.742.536 7.513.97 11.311 1.301a219.498 219.498 0 0 0 32.91.4l-5.371-5.354a23.643 23.643 0 0 1-6.079-23.101l14.894-53.337c3.103-11.112 13.773-18.361 25.246-17.152l73.297 7.721c17.677 1.862 27.053 21.834 17.193 36.624l-11.254 16.882a212.556 212.556 0 0 0 32.08-27.56l-26.396-77.304a20.179 20.179 0 0 0-12.075-12.397l-70.672-26.229c-16.241-6.028-20.698-26.9-8.335-39.035l127.923-125.567c-19.394-23.641-43.75-43.125-71.343-56.728l-33.299 107.006a23.642 23.642 0 0 1-18.113 16.192l-94.415 18.137a20.176 20.176 0 0 0-13.671 9.732l-14.234 24.67c-7.359 12.754-24.46 15.751-35.716 6.259l-81.209-68.473zM421.81 486.454l8.181-67.128c1.522-12.491-8.634-23.313-21.197-22.586l-22.611 1.308a23.64 23.64 0 0 1-18.329-7.135l-59.42-61.212a20.18 20.18 0 0 0-20.038-5.343l-36.868 10.564c22.338 77.872 89.238 138.522 170.282 151.532zM667.13 257.69c5.477 63.005-16.349 120.78-54.989 162.844l-25.8-75.559a23.642 23.642 0 0 0-14.147-14.524l-70.672-26.229c-13.863-5.145-17.667-22.96-7.114-33.319l127.682-125.33c25.07 31.58 41.401 70.27 45.04 112.117zm-407.872-61.417 82.088 69.215c9.609 8.101 24.205 5.543 30.486-5.343l14.234-24.67a23.642 23.642 0 0 1 16.017-11.402l94.415-18.137a20.18 20.18 0 0 0 15.461-13.821l33.452-107.499c-21.827-10.315-45.603-16.973-70.498-19.143-97.073-8.44-181.753 47.954-215.655 130.8zm214.761 292.063c35.116-2.98 67.755-14.455 95.863-32.371l15.873-23.809c8.416-12.624.413-29.672-14.676-31.261l-73.297-7.722c-9.793-1.031-18.901 5.157-21.549 14.641l-14.894 53.337a20.18 20.18 0 0 0 5.189 19.718l7.491 7.467z" fill="#E1E4E5"/><path fill-rule="evenodd" clip-rule="evenodd" d="M444.196 95.804c43.739 43.739 43.739 114.653 0 158.392-43.739 43.739-114.653 43.739-158.392 0-43.739-43.739-43.739-114.653 0-158.392 43.739-43.739 114.653-43.739 158.392 0z" fill="#946BDE"/><path d="M444.196 95.804c43.739 43.739 43.739 114.653 0 158.392-43.739 43.739-114.653 43.739-158.392 0-43.739-43.739-43.739-114.653 0-158.392 43.739-43.739 114.653-43.739 158.392 0" stroke="#946BDE" stroke-width="10.562" stroke-linecap="round" stroke-linejoin="round"/><path d="M365 221.095c2.091 0 3.796 1.642 3.796 3.658s-1.705 3.659-3.796 3.659c-2.09 0-3.795-1.643-3.795-3.659s1.705-3.658 3.795-3.658m60.667-66.339c-35.38-27.615-85.954-27.615-121.334 0m25.288 35.326c20.633-16.09 50.126-16.09 70.771 0" stroke="#fff" stroke-width="14" stroke-linecap="round" stroke-linejoin="round"/></svg>