<svg width="900" height="600" viewBox="0 0 900 600" fill="none" xmlns="http://www.w3.org/2000/svg"><path fill="transparent" d="M0 0h900v600H0z"/><path stroke="#E1E4E5" stroke-width="4" d="M111 543.636h678"/><path d="M222.148 541.402h329.695c12.591 0 22.802-8.17 22.802-18.246v-10.848c0-10.08-10.211-18.246-22.802-18.246h-329.69c15.083 13.191 15.34 33.355.608 46.793l-.613.547z" fill="#4B386C"/><path d="M227.24 499.48h182.862c12.592 0 22.803 8.17 22.803 18.25 0 10.075-10.206 18.245-22.803 18.245H227.224c8.549-11.192 8.528-25.331.016-36.495z" fill="url(#a)"/><path d="M296.817 461.177c-.477-.692.252-1.497 1.358-1.497h174.45c13.673 0 24.759 7.696 24.759 17.193 0 9.493-11.086 17.194-24.759 17.194H298.128c-1.112 0-1.846-.81-1.358-1.506 6.907-9.938 6.886-21.491.047-31.384z" fill="#946BDE"/><path d="M297.919 462.88h86.459c16.048 0 29.059 6.45 29.059 14.405 0 7.956-13.011 14.406-29.059 14.406h-87.026c5.947-9.166 6.11-19.605.567-28.811z" fill="url(#b)"/><path d="M323.308 458.437h101.5c9 0 16.3-6.68 16.3-14.923s-7.295-14.923-16.3-14.923H323.303c7.756 8.275 8.06 20.41.723 29.001l-.718.845z" fill="url(#c)"/><path d="M441.098 443.514c0-8.243-7.469-14.924-16.683-14.924H321.373c-.483 0-.871-.352-.865-.781.005-.425.388-.765.865-.765h163.463c10.169 0 18.413 7.373 18.413 16.474 0 9.096-8.244 16.473-18.413 16.473H321.373c-.472 0-.86-.344-.865-.765-.006-.429.382-.781.865-.781h103.042c9.214-.008 16.683-6.689 16.683-14.931z" fill="#4B386C"/><path d="M262.525 395.033H522.25c8.065 0 14.605 5.046 14.605 11.269v9.477c0 6.224-6.54 11.27-14.605 11.27H262.525l.137-.11c11.113-8.926 11.055-23.04-.137-31.906z" fill="#946BDE"/><path d="M267.125 399.772H405.97c8.066 0 14.606 5.046 14.606 11.269 0 6.224-6.54 11.27-14.606 11.27H267.13c5.103-6.981 5.098-15.567-.005-22.539z" fill="url(#d)"/><path d="M279.433 412.923c-8.643-2.92-16.133-9.139-20.507-17.116-1.236-2.2-2.245-4.728-1.913-7.229.085-.51.214-1.113.673-1.351.412-.237.969-.107 1.433.025 14.436 3.895 29.698 10.458 44.85 9.766.693-.011 1.386-.068 1.991.201.744.312 1.217.998 1.551 1.733 1.146 2.386 2.139 6.901 1.764 9.588-.46 3.197-3.55 3.66-6.267 4.348-7.736 1.967-15.862 2.645-23.575.035z" fill="#F8AE9D"/><path d="M278.099 395.007c-1.163-.491-2.373-.981-3.621-1.008-1.249-.028-2.625.64-3.023 1.848-.265.836-.02 1.711.315 2.492.909 2.02 2.506 3.66 4.192 5.113 6.462 5.449 14.741 8.744 23.208 9.263 3.748.22 7.672-.117 10.973-1.877-1.648-2.009-1.322-4.88-1.499-7.42-.529-7.434-6.866-4.611-11.951-4.626-6.381-.134-12.733-1.378-18.594-3.785z" fill="#F8AE9D"/><path d="m471.508 340.018.29.827c2.031 5.887 3.603 11.965 4.252 18.195 1.191 11.446-1.056 24.84-9.666 33.153-11.481 11.084-29.899 12.797-44.871 10.158a37.889 37.889 0 0 1-16.801-7.465c-4.879 4.42-10.121 9.261-14.484 14.181a110.257 110.257 0 0 1-24.827-12.382c-18.271 8.368-36.907 14.013-56.584 18.102a76.321 76.321 0 0 1-4.702-17.402c-.153-.968 12.11-9.244 13.525-10.421 4.245-3.578 13.088-11.756 13.088-11.756s-11.146-9.492-16.021-13.948a232.197 232.197 0 0 1-14.829-14.567c-3.9-4.194-7.712-8.62-10.103-13.853-2.39-5.188-3.269-11.322-1.271-16.715 6.309-16.784 31.777-10.884 43.607-5.1 9.78 4.798 18.346 11.786 26.589 18.872 3.325 2.816 6.605 5.725 9.838 8.588 2.549-2.628 5.363-6.045 7.771-8.809 2.59-2.998 5.552-5.816 9.131-7.581 3.761-1.906 7.232-1.635 11.245-2.205 1.799-.258 3.548-.793 5.3-1.097 5.255-.958 10.818.066 15.435 2.77 4.385 2.568 7.944 5.611 13.09 6.596 5.842 1.114 12.627.456 18.486-.327 5.259-.727 10.603-1.917 15.842-.887 2.179.429 3.011 3.467 3.731 5.213.963 2.528 1.974 5.147 2.939 7.86zm-46.42-193.589s14.144-2.249 17.943 22.72c4.22 27.759 15.49 23.192 33.387 45.732 10.459 13.171-.548 36.43-22.916 35.969-22.368-.45-42.569-6.917-55.436-4.15-12.866 2.767-13.573-30.188-.878-40.356 12.696-10.167-14.372-39.366 2.122-52.368 16.494-13.002 25.778-7.547 25.778-7.547z" fill="#4B386C"/><path d="M509.634 256.533c1.29-2.651 1.212-5.73.747-8.604-2.017-12.334-10.66-22.641-20.568-30.194-9.94-7.572-21.318-12.978-31.776-19.764-2.714-1.767-5.435-3.671-8.551-4.626-3.116-.955-6.738-.852-9.311 1.157-1.817 1.411-2.867 3.591-3.478 5.772-1.339 4.774-.826 9.83-.009 14.673 1.021 6.109 2.52 12.155 4.982 17.769 1.973 4.53 5.185 9.19 10.013 10.078 1.397 5.412 4.272 10.485 8.306 14.367 4.614 4.45 10.464 7.36 16.534 9.392 5.594 1.877 11.711 3.102 17.338 1.351 3.339-1.02 6.28-2.984 9.157-4.986 2.566-1.706 5.23-3.573 6.616-6.385zm-50.551-8.225-3.302-5.242c.704.073 1.369.209 2.039.482 1.813.785 2.905 3.64 1.263 4.76z" fill="#4B386C"/><path d="M397.896 168.387c-.171.927-.202 1.899-.139 3.007a61.75 61.75 0 0 0 4.124 18.89c1.441 3.584 3.205 7.117 5.7 10.084 1.036 1.232 2.209 2.37 3.741 2.809 1.578.438 3.567.5 5.133.107 1.381 5.711.805 16.49-4.126 20.541-1.507 1.225-3.298 1.991-5.091 2.666-3.493 1.347-7.129 2.373-10.769 3.168-4.146.895-8.666 1.565-11.579 4.614-.364.375-.726.889-.579 1.395.097.322.332.55.612.731 2.293 1.86 5.128 2.88 7.963 3.854 4.972 1.681 10.078 3.083 15.27 4.021 5.423.981 11.023 1.451 16.515.859 4.246-.481 8.436-1.562 12.29-3.469 4.038-2.003 8.173-3.637 12.351-5.55 3.535-1.625 7.02-3.481 10.846-4.14-1.808-3.44-5.582-5.37-9.34-6.284-3.758-.867-7.688-.946-11.49-1.674-1.252-.259-2.505-.563-3.58-1.333-2.944-2.128-2.138-6.855-2.185-9.952l-.149-9.797c.438-4.676 2.366-8.588 4.058-12.867 2.581-6.557 3.115-14.007.841-20.722-2.274-6.668-7.447-12.46-14.093-14.81-6.646-2.349-14.623-1.026-19.727 3.86-3.234 3.146-5.872 5.96-6.597 9.992z" fill="#F8AE9D"/><path d="M418.335 147.554c-6.624-.74-12.66 2.504-17.136 7.532-3.765 4.215-5.978 9.779-5.866 15.369.016.799.106 1.669.556 2.386 1.196 1.719 3.798 1.086 5.744.321 3.171-1.226 5.532-3.016 8.407-4.526 2.875-1.51 6.366-1.289 8.939-3.374 2.429-2.009 10.769-6.243 10.994-9.516.284-4-7.044-7.267-10.108-7.933-.439-.136-.948-.198-1.53-.259z" fill="#4B386C"/><path d="M437.418 156.609c5.601 3.612 8.23 9.94 8.521 16.665.255 5.646-1.545 11.357-5.164 15.619-.517.609-1.136 1.226-1.939 1.498-2.013.576-3.63-1.558-4.655-3.381-1.683-2.953-2.382-5.833-3.656-8.82s-4.119-5.021-4.796-8.263c-.613-3.092-4.402-11.644-2.509-14.323 2.308-3.279 10.052-1.181 12.847.239.426.171.861.445 1.351.766z" fill="#4B386C"/><path d="M387.596 232.845c-.884-.403-1.943-.109-2.532.686-6.608 9.253-9.16 20.848-11.394 32.023-2.534 12.704-4.79 25.451-6.954 38.196-.129.649-.211 1.344.075 1.94.287.597.939.911 1.544 1.179 3.818 1.837 7.682 3.628 11.501 5.465a126.848 126.848 0 0 0 8.846-29.303c2.452 6.203 6.879 11.59 12.526 15.11-4.208 6.027-9.387 18.079-14.437 23.379-.773.844-5.555-.47-6.623-.824-.665 1.906 2.448-.13 2.431 1.812 2.872.419 6.544-1.301 9.497-1.67a48.98 48.98 0 0 1 10.724-.07c5.927.65 11.687 2.504 16.953 5.29a60.41 60.41 0 0 1 7.514 4.739c2.058 1.541 7.151 5.162 7.151 5.162.374.271 2.125-.125 2.54-.224a46.222 46.222 0 0 1 3.644-.471 86.592 86.592 0 0 0 9.135-1.202c6.039-1.109 11.976-2.817 17.672-5.169.549-.424-1.408-4.462-1.512-5.247.103.738 11.322-.172 12.429-.373 4.424-.9 8.901-1.384 13.324-2.329-1.981-17.814-7.42-35.02-12.764-52.088-2.09-6.718-4.226-13.434-7.188-19.769-3.153-6.747-7.225-13.065-12.118-18.676-.14-.137-.373-.226-.557-.177-2.349.591-16.669 4.275-23.794 6.926-3.631 1.396-7.31 2.654-11.035 3.912-1.472.485-2.99.97-4.516.947-1.017-.031-2.037-.246-3.012-.463-9.926-2.207-19.854-4.598-29.07-8.711z" fill="#946BDE"/><path d="M452.203 268.336c.409 2.536.956 5.117 1.503 7.651a134.966 134.966 0 0 0 5.111 16.934c1.059 2.757 2.164 5.468 3.407 8.176.621 1.331 1.242 2.663 1.909 3.993.334.642.668 1.33 1.001 1.973.286.55.617 1.053.902 1.558-1.989-.063-11.803.503-13.835.673" stroke="#fff" stroke-width="1.376" stroke-miterlimit="10" stroke-linecap="round"/><path d="M451.884 311.286c.204 1.291.455 2.581.752 3.871l.891 3.87c.294 1.105.962 2.481.98 3.637-.004-.231-7.873-.898-8.613-.979-8.195-.8-16.43-1.276-24.62-1.799-5.321-.335-10.543-.209-15.859-.175-1.571.024-3.422-.133-4.274-1.414-.71-1.099-.13-2.494-.7-3.503-.369.098-4.651 1.18-4.606 1.087-.171.974-.509 3.013-1.519 3.49a3.104 3.104 0 0 1-1.107.202c-.554.008-1.11-.076-1.666-.16a.353.353 0 0 1-.233-.088c-.093-.092-.003-.232.087-.372a11.017 11.017 0 0 0 1.892-6.315c1.327-.899 2.652-1.936 3.79-3.062.911-.939 1.586-2.151 2.59-2.952 1.05-.894 2.075-.355 3.235-.049 1.346.303 2.692.652 3.992 1.049 2.554.793 5.112 1.771 7.262 3.356.748.544 1.451 1.134 2.333 1.398.836.264 1.76.25 2.638.237 5.407-.128 10.811-.395 16.165-.985 5.492-.592 9.237-.51 16.432-1.59.001.046.007.462.158 1.246z" fill="#F8AE9D"/><path d="M392.343 267.823c-1.292 5.587-2.224 11.23-2.855 16.987" stroke="#fff" stroke-width="1.376" stroke-miterlimit="10" stroke-linecap="round"/><path d="m283.332 258.605 15.867 70.763 120.485-1.83c-.063-4.16-3.489-7.528-7.694-7.464l-28.793.437-14.348-65.1c-.449-2.12-2.367-3.616-4.492-3.584l-76.626 1.164c-2.911.091-5.043 2.758-4.399 5.614z" fill="#4B386C"/><path d="M440.725 431.506c-.558-3.228-2.134-6.532-3.611-9.422-6.096-11.834-16.994-20.174-28.73-25.913-1.211-.582-2.422-1.165-3.676-1.608.094.137.189.274.284.458l.001.046.046-.001c-.14-.09-.234-.181-.374-.271-4.743 4.278-9.802 8.978-14.122 13.712 2.855 2.315 6.998 4.193 9.055 5.734 4.862 3.578 9.542 7.39 14.586 10.734 6.772 4.566 13.987 7.877 22.053 9.326 3.105.554 4.732 1.13 4.696-1.273-.052-.369-.106-.877-.208-1.522z" fill="#F8AE9D"/><path d="M432.861 422.195c-3.141-5.916-8.017-10.418-13.347-14.405-3.741-2.809-7.709-5.338-11.492-7.915-1.075-.724-3.184-2.679-5.002-3.622-3.784 3.432-7.659 7.05-11.161 10.801 11.571 7.036 21.88 16.217 34.576 21.201 1.162.445 2.371.889 3.62.916 1.248.028 2.581-.501 3.305-1.529 1.131-1.589.405-3.751-.499-5.447z" fill="#F8AE9D"/><path d="M629.22 483.955a1.913 1.913 0 0 0 1.914-1.882c.367-20.007-15.667-28.67-16.353-29.037a1.927 1.927 0 0 0-2.6.813 1.936 1.936 0 0 0 .797 2.601c.032.016 3.75 2.01 7.339 6.174 4.755 5.505 7.1 12.03 6.956 19.385a1.934 1.934 0 0 0 1.883 1.962c.032-.016.048-.016.064-.016zm6.19-49.666s22.32-42.104-57.755-71.619c-4.133-1.516-8.313 2.122-7.324 6.413 5.058 21.922 21.635 73.167 65.079 65.206z" fill="#946BDE"/><path d="M657.379 480.142c.096 0 .191 0 .271-.016a1.927 1.927 0 0 0 1.628-2.186c-5.553-38.306-34.095-56.111-37.318-58.026-.909-.542-2.106-.255-2.648.654-.543.91-.256 2.09.654 2.633l.048.016c1.356.797 8.471 5.201 16.13 13.784 10.561 11.87 17.071 25.815 19.336 41.466.144.989.958 1.675 1.899 1.675z" fill="#946BDE"/><path d="M645.622 480.142h.096a1.937 1.937 0 0 0 1.835-2.01c-.766-16.385 9.636-31.335 9.732-31.494a1.935 1.935 0 0 0-.463-2.681 1.935 1.935 0 0 0-2.68.463c-.463.654-11.264 16.194-10.434 33.887a1.914 1.914 0 0 0 1.914 1.835zm-5.521 2.824h.048a1.914 1.914 0 0 0 1.867-1.978l-1.644-62.334a1.914 1.914 0 0 0-1.978-1.867 1.914 1.914 0 0 0-1.867 1.978l1.644 62.318a1.938 1.938 0 0 0 1.93 1.883z" fill="#946BDE"/><path d="M653.471 447.707s45.422 14.439 60.148-69.641c.766-4.34-3.574-7.786-7.626-6.047-20.661 8.887-68.126 34.366-52.522 75.688zm-29.42 16.178s-40.828 24.585-74.667-53.783c-1.739-4.036 1.675-8.408 6.015-7.658 22.16 3.861 74.236 17.63 68.652 61.441z" fill="#946BDE"/><path d="M631.533 440.208c3.159 6.542 12.7 5.824 14.87-1.117 9.684-30.919 25.91-96.46-7.69-103.991-37.685-8.439-25.065 68.126-7.18 105.108z" fill="#946BDE"/><path d="M639.288 444.404h.048c.574-.016 1.021-.51 1.005-1.085l-3.542-87.638a1.04 1.04 0 0 0-1.085-1.005c-.574.016-1.021.511-1.005 1.085l3.526 87.638a1.042 1.042 0 0 0 1.053 1.005zm-16.369 19.608c.303 0 .606-.128.813-.383.367-.447.304-1.117-.143-1.468l-48.534-39.726c-.446-.367-1.116-.303-1.467.143-.367.447-.304 1.117.143 1.468l48.534 39.727c.191.159.43.239.654.239z" fill="#4B386C"/><path d="M602.221 476.026c-6.531 0-11.392 6.031-10.006 12.412l.894 4.037 1.866 8.567.878 4.053.306 1.399c4.413 20.188 22.289 34.578 42.954 34.578s38.541-14.39 42.955-34.578l.306-1.399.877-4.053 1.867-8.567.877-4.037c1.394-6.378-3.464-12.412-9.993-12.412h-73.781z" fill="#fff" stroke="#E1E4E5" stroke-width="4" stroke-linecap="round" stroke-linejoin="round"/><path d="M237.286 313.626c-12.86 3.046-26.462-7.861-26.462-7.861s7.258-15.84 20.123-18.877c12.861-3.047 26.459 7.85 26.459 7.85s-7.259 15.841-20.12 18.888z" fill="url(#e)"/><path d="M229.373 141.883c19.56 13.473 49.443 4.055 49.443 4.055s-1.851-31.258-21.424-44.717c-19.56-13.473-49.429-4.068-49.429-4.068s1.851 31.258 21.41 44.73z" fill="url(#f)"/><path d="M624.495 189.788c-11.683 11.892-33.531 9.384-33.531 9.384s-2.892-21.787 8.803-33.671c11.683-11.892 33.521-9.392 33.521-9.392s2.891 21.788-8.793 33.679z" fill="url(#g)"/><circle cx="726.792" cy="453.418" r="10.038" transform="rotate(180 726.792 453.418)" fill="#946BDE"/><ellipse cx="211.033" cy="449.493" rx="11.115" ry="10.559" transform="rotate(180 211.033 449.493)" fill="#946BDE"/><circle r="14.388" transform="matrix(-1 0 0 1 702.244 208.798)" fill="#946BDE"/><ellipse rx="10.003" ry="9.448" transform="matrix(-1 0 0 1 765.659 503.956)" fill="#E1E4E5"/><circle r="8.03" transform="matrix(-1 0 0 1 126.81 395.837)" fill="#E1E4E5"/><circle r="4.796" transform="matrix(-1 0 0 1 538.156 359.259)" fill="#E1E4E5"/><circle r="6.852" transform="matrix(-1 0 0 1 520.205 95.671)" fill="#E1E4E5"/><circle r="6.695" transform="scale(1 -1) rotate(-75 -242.995 -342.08)" fill="#E1E4E5"/><circle r="8.907" transform="matrix(-1 0 0 1 201.907 209.907)" fill="#E1E4E5"/><ellipse rx="6.852" ry="5.481" transform="matrix(-1 0 0 1 755.469 298.123)" fill="#E1E4E5"/><circle r="13.934" transform="scale(1 -1) rotate(-75 80.853 -518.159)" fill="#E1E4E5"/><path d="M688.982 275.548h.179c1.062 15.038 12.246 15.27 12.246 15.27s-12.333.241-12.333 17.617c0-17.376-12.333-17.617-12.333-17.617s11.179-.232 12.241-15.27zM348.585 108.826h.175c1.037 15.3 11.96 15.536 11.96 15.536s-12.045.245-12.045 17.924c0-17.679-12.046-17.924-12.046-17.924s10.919-.236 11.956-15.536zM134.955 292h.175c1.037 15.3 11.961 15.536 11.961 15.536s-12.046.245-12.046 17.923c0-17.678-12.045-17.923-12.045-17.923s10.919-.236 11.955-15.536zm477-57h.175c1.037 15.3 11.961 15.536 11.961 15.536s-12.046.245-12.046 17.923c0-17.678-12.045-17.923-12.045-17.923s10.919-.236 11.955-15.536zm-315.022-25h.13c.775 11.432 8.937 11.608 8.937 11.608s-9 .183-9 13.392c0-13.209-9-13.392-9-13.392s8.158-.176 8.933-11.608z" fill="#E1E4E5"/><defs><linearGradient id="a" x1="325.679" y1="556.436" x2="325.879" y2="459.767" gradientUnits="userSpaceOnUse"><stop stop-color="#fff"/><stop offset="1" stop-color="#EEE"/></linearGradient><linearGradient id="b" x1="352.92" y1="507.844" x2="353.14" y2="431.529" gradientUnits="userSpaceOnUse"><stop stop-color="#fff"/><stop offset="1" stop-color="#EEE"/></linearGradient><linearGradient id="c" x1="379.694" y1="475.171" x2="379.927" y2="396.112" gradientUnits="userSpaceOnUse"><stop stop-color="#fff"/><stop offset="1" stop-color="#EEE"/></linearGradient><linearGradient id="d" x1="340.579" y1="434.947" x2="340.681" y2="375.245" gradientUnits="userSpaceOnUse"><stop stop-color="#fff"/><stop offset="1" stop-color="#EEE"/></linearGradient><linearGradient id="e" x1="188.857" y1="321.201" x2="301.438" y2="268.013" gradientUnits="userSpaceOnUse"><stop stop-color="#fff"/><stop offset="1" stop-color="#EEE"/></linearGradient><linearGradient id="f" x1="305.567" y1="186.089" x2="151.597" y2="23.731" gradientUnits="userSpaceOnUse"><stop stop-color="#fff"/><stop offset="1" stop-color="#EEE"/></linearGradient><linearGradient id="g" x1="577.88" y1="230.407" x2="662.345" y2="98" gradientUnits="userSpaceOnUse"><stop stop-color="#fff"/><stop offset="1" stop-color="#EEE"/></linearGradient></defs></svg>